<svg width="52" height="48" viewBox="0 0 52 48" fill="none" xmlns="http://www.w3.org/2000/svg">
<path d="M46 0H6C4.4087 0 2.88258 0.632141 1.75736 1.75736C0.632141 2.88258 0 4.4087 0 6V34C0 35.5913 0.632141 37.1174 1.75736 38.2426C2.88258 39.3679 4.4087 40 6 40H24V44H18C17.4696 44 16.9609 44.2107 16.5858 44.5858C16.2107 44.9609 16 45.4696 16 46C16 46.5304 16.2107 47.0391 16.5858 47.4142C16.9609 47.7893 17.4696 48 18 48H34C34.5304 48 35.0391 47.7893 35.4142 47.4142C35.7893 47.0391 36 46.5304 36 46C36 45.4696 35.7893 44.9609 35.4142 44.5858C35.0391 44.2107 34.5304 44 34 44H28V40H46C47.5913 40 49.1174 39.3679 50.2426 38.2426C51.3679 37.1174 52 35.5913 52 34V6C52 4.4087 51.3679 2.88258 50.2426 1.75736C49.1174 0.632141 47.5913 0 46 0ZM6 4H46C46.5304 4 47.0391 4.21071 47.4142 4.58579C47.7893 4.96086 48 5.46957 48 6V26H4V6C4 5.46957 4.21071 4.96086 4.58579 4.58579C4.96086 4.21071 5.46957 4 6 4ZM46 36H6C5.46957 36 4.96086 35.7893 4.58579 35.4142C4.21071 35.0391 4 34.5304 4 34V30H48V34C48 34.5304 47.7893 35.0391 47.4142 35.4142C47.0391 35.7893 46.5304 36 46 36Z" fill="#F4F4F4"/>
</svg>
