<svg width="40" height="42" viewBox="0 0 40 42" fill="none" xmlns="http://www.w3.org/2000/svg">
<path d="M4.44445 1.66667H23.3333C24.8675 1.66667 26.1111 2.91032 26.1111 4.44445V12.0479C26.1111 12.7847 25.8185 13.4912 25.2975 14.0121L15.1232 24.1864C14.6023 24.7073 13.8958 25 13.159 25H4.44445C2.91032 25 1.66667 23.7563 1.66667 22.2222V4.44444C1.66667 2.91032 2.91032 1.66667 4.44445 1.66667Z" stroke="white" stroke-width="3.33333"/>
<path d="M38.3328 16.6671V36.6671C38.3328 38.2012 37.0891 39.4449 35.555 39.4449H16.6661C15.132 39.4449 13.8883 38.2012 13.8883 36.6671V26.8414C13.8883 26.1047 14.181 25.3981 14.7019 24.8772L24.8762 14.7029C25.3972 14.182 26.1037 13.8893 26.8404 13.8893H35.555C37.0891 13.8893 38.3328 15.133 38.3328 16.6671Z" fill="white" fill-opacity="0.2" stroke="white" stroke-width="3.33333"/>
<rect x="6.66699" y="8.88867" width="13.3333" height="1.66667" fill="white"/>
<rect x="12.2231" y="8.88867" width="3.33333" height="1.66667" transform="rotate(-90 12.2231 8.88867)" fill="white"/>
<path d="M7.22266 17.2222C10.9264 17.037 18.0004 15.3333 16.6671 10" stroke="white" stroke-width="1.66667"/>
<path d="M15.9468 18.3318C12.2431 18.1466 9.28011 15.554 8.88949 12.2207" stroke="white" stroke-width="1.66667"/>
<path d="M29.6393 30.6602H25.6365L24.9949 32.5547H22.2602L26.1407 21.8297H29.1657L33.0463 32.5547H30.281L29.6393 30.6602ZM28.9671 28.6436L27.6379 24.7172L26.324 28.6436H28.9671Z" fill="white"/>
</svg>
